<svg width="668" height="359" viewBox="0 0 668 359" fill="none" xmlns="http://www.w3.org/2000/svg">
<path d="M54.9258 110.371C51.9633 104.497 48.3635 96.5023 45.0677 87.7398M626.186 266.859C690.463 205.494 660.565 186.153 632.42 170.972C609.903 158.827 561.951 180.282 540.789 192.527L164.802 94.4514C147.409 19.6856 126.667 15.1005 105.407 6.03138C84.1471 -3.03779 52.9334 10.3076 39.0551 30.8486C31.2693 42.3722 37.3312 67.1712 45.0677 87.7398M626.186 266.859C636.842 289.669 646.906 339.009 601.917 353.886C556.928 368.764 526.174 303.244 516.421 268.625L151.915 161.989C134.789 178.543 88.1375 206.96 38.5373 188.2C-23.463 164.749 6.64093 118.681 45.0677 87.7398M626.186 266.859C622.689 268.789 615.558 274.745 615.014 283.125" stroke="#398A6A" stroke-width="5"/>
</svg>
