<svg width="556" height="231" viewBox="0 0 556 231" fill="none" xmlns="http://www.w3.org/2000/svg">
<path d="M47.664 151.15C43.1109 146.845 37.2248 140.832 31.2411 134.014M523.421 92.8203C544.408 14.367 514.914 7.26914 488.395 3.34203C467.18 0.200342 441.498 36.5852 431.309 55.1703L120.208 98.0397C76.8761 36.0926 60.0538 39.2091 41.011 38.4255C21.9681 37.6419 4.99563 60.7612 3.46867 84.338C2.61204 97.5646 17.1954 118.009 31.2411 134.014M523.421 92.8203C540.492 109.84 568.069 151.217 541.81 180.573C515.552 209.929 466.412 161.094 445.124 133.007L138.761 164.05C133.253 185.139 111.377 227.404 67.9373 227.76C13.6376 228.204 16.3264 175.686 31.2411 134.014M523.421 92.8203C521.698 95.8069 519.019 103.735 522.08 111.555" stroke="#398A6A" stroke-width="5"/>
</svg>
