<svg width="99" height="99" viewBox="0 0 99 99" fill="none" xmlns="http://www.w3.org/2000/svg">
<path d="M50.0977 41.6949C50.0977 35.7706 52.3464 33.8334 57.697 31.2708C63.2646 28.6044 73.2334 30.031 75.689 36.5287C79.3004 46.0848 69.1226 56.8178 62.9534 63.0322C59.6714 66.3384 56.2673 69.4425 53.0413 72.8144C52.4253 73.4583 51.8996 74.343 51.179 74.7097" stroke="#398A6A" stroke-width="2" stroke-linecap="round" stroke-dasharray="8 8"/>
<path d="M49.4982 41.6695C49.122 35.758 46.7154 33.9704 41.119 31.7592C35.2957 29.4584 25.2628 31.5263 23.1818 38.1686C20.1213 47.9372 31.1387 57.9891 37.7981 63.7913C41.3411 66.8782 44.9951 69.7555 48.4852 72.9115C49.1517 73.5142 49.7417 74.363 50.4968 74.6823" stroke="#398A6A" stroke-width="2" stroke-linecap="round" stroke-dasharray="8 8"/>
<circle cx="49.5" cy="49.5" r="48.5" stroke="#398A6A" stroke-width="2"/>
</svg>
