<svg width="49" height="45" viewBox="0 0 49 45" fill="none" xmlns="http://www.w3.org/2000/svg">
<path d="M23.9331 16.7111C17.1035 3.56571 13.6272 1.48814 12.7428 2.09252C10.62 2.90844 10.4739 6.43654 10.6663 8.0986L6.51315 11.7249C3.92899 11.9969 1.89856 13.3492 1.20637 13.9913C0.191164 17.6176 3.16756 21.6972 4.78266 23.2837H12.0506C11.7814 29.7809 11.9121 42.9564 14.5886 43.6817C17.265 44.407 21.3182 38.3178 23.0102 35.1825C29.4706 34.004 35.7772 35.1448 38.1229 35.8625C43.8911 45.9481 43.8911 43.9083 46.8906 43.6817C49.2902 43.5004 47.1982 30.0075 46.1984 23.2837C46.4753 13.7647 39.2381 14.9357 36.1617 16.7111L38.1229 20.1107L23.9331 16.7111Z" stroke="#808080" stroke-width="2"/>
</svg>
