<svg width="41" height="41" viewBox="0 0 41 41" fill="none" xmlns="http://www.w3.org/2000/svg">
<g clip-path="url(#clip0_27_291)">
<path fill-rule="evenodd" clip-rule="evenodd" d="M41 20.5C41 31.8224 31.8219 41 20.5 41C9.17803 41 0 31.8224 0 20.5C0 9.1777 9.17803 0 20.5 0C31.8219 0 41 9.1777 41 20.5ZM31.2471 18.3667C31.0652 18.3842 30.8822 18.3954 30.6977 18.3954C28.6083 18.3954 26.7717 17.3219 25.7024 15.6966V24.8893C25.7024 28.6416 22.6596 31.6835 18.9081 31.6835C15.1563 31.6822 12.1137 28.6393 12.1137 24.888C12.1137 21.1344 15.1563 18.0927 18.9081 18.0927C19.0154 18.0927 19.1205 18.1002 19.2253 18.1077L19.3273 18.1139V21.4634L19.2213 21.4497C19.1481 21.4397 19.0755 21.4296 19.001 21.4247L18.9081 21.4209C16.9931 21.4209 15.4404 22.9737 15.4404 24.8893C15.4404 26.8037 16.9916 28.3564 18.9081 28.3564C20.8244 28.3564 22.5154 26.8476 22.5154 24.9318L22.5492 9.31909H25.7485C26.0488 12.1806 28.3594 14.4391 31.2471 14.6468V18.3667Z" fill="#F8EFE8"/>
</g>
<defs>
<clipPath id="clip0_27_291">
<rect width="41" height="41" fill="white"/>
</clipPath>
</defs>
</svg>
