<svg width="41" height="41" viewBox="0 0 41 41" fill="none" xmlns="http://www.w3.org/2000/svg">
<path fill-rule="evenodd" clip-rule="evenodd" d="M20.5 0C9.17816 0 0 8.60452 0 19.2188C0 29.8329 9.17816 38.4375 20.5 38.4375C31.8219 38.4375 41 29.8329 41 19.2188C41 8.60452 31.8219 0 20.5 0ZM22.1712 25.285C21.9691 25.4848 21.5745 25.5252 21.5745 25.5252H20.2675C20.2675 25.5252 17.3842 25.6847 14.8441 23.2517C12.0741 20.5973 9.62816 15.3308 9.62816 15.3308C9.62816 15.3308 9.48699 14.9853 9.63992 14.819C9.81212 14.631 10.2816 14.6192 10.2816 14.6192L13.4056 14.6005C13.4056 14.6005 13.6997 14.6448 13.9104 14.7875C14.0848 14.9056 14.1821 15.1251 14.1821 15.1251C14.1821 15.1251 14.6869 16.3002 15.3553 17.3632C16.6612 19.4389 17.2687 19.8926 17.7114 19.6702C18.3574 19.3463 18.1638 16.7363 18.1638 16.7363C18.1638 16.7363 18.1756 15.7894 17.8387 15.3672C17.5778 15.0405 17.0858 14.945 16.8687 14.9184C16.6922 14.8968 16.981 14.5208 17.3553 14.3525C17.9178 14.0996 18.9104 14.0848 20.0836 14.0956C20.998 14.1045 21.2611 14.1567 21.6183 14.2364C22.4474 14.4205 22.4215 15.0105 22.3656 16.2838C22.3489 16.6647 22.3295 17.1066 22.3295 17.6171C22.3295 17.7318 22.3259 17.8541 22.3222 17.9799C22.3028 18.6323 22.2806 19.3793 22.7477 19.6573C22.9873 19.7991 23.5723 19.678 25.0364 17.3907C25.7306 16.3061 26.2503 15.0316 26.2503 15.0316C26.2503 15.0316 26.3648 14.8043 26.5414 14.7068C26.722 14.6074 26.9657 14.6379 26.9657 14.6379L30.2534 14.6192C30.2534 14.6192 31.2417 14.51 31.4011 14.9214C31.569 15.3515 31.0321 16.3573 29.6889 18.0049C28.4189 19.5629 27.7985 20.1399 27.8508 20.6477C27.8892 21.0216 28.2926 21.3581 29.0695 22.0214C30.6841 23.401 31.1169 24.1269 31.221 24.3012C31.2297 24.3157 31.2361 24.3264 31.2407 24.3333C31.9646 25.4386 30.4374 25.5252 30.4374 25.5252L27.5166 25.5626C27.5166 25.5626 26.8899 25.6768 26.0642 25.1551C25.6317 24.8821 25.2091 24.4362 24.8065 24.0115C24.1918 23.3629 23.6239 22.7637 23.1391 22.9052C22.3253 23.1434 22.3499 24.7565 22.3499 24.7565C22.3499 24.7565 22.3563 25.102 22.1712 25.285Z" fill="#F8EFE8"/>
</svg>
