<svg width="41" height="41" viewBox="0 0 41 41" fill="none" xmlns="http://www.w3.org/2000/svg">
<g clip-path="url(#clip0_27_295)">
<path d="M23.9231 20.1434L19.1269 17.9055C18.7084 17.7112 18.3646 17.929 18.3646 18.3923V22.6077C18.3646 23.071 18.7084 23.2888 19.1269 23.0945L23.9209 20.8566C24.3416 20.6602 24.3416 20.3398 23.9231 20.1434ZM20.5 0C9.17803 0 0 9.17803 0 20.5C0 31.8219 9.17803 41 20.5 41C31.8219 41 41 31.8219 41 20.5C41 9.17803 31.8219 0 20.5 0ZM20.5 28.8281C10.0066 28.8281 9.82291 27.882 9.82291 20.5C9.82291 13.1179 10.0066 12.1719 20.5 12.1719C30.9934 12.1719 31.1772 13.1179 31.1772 20.5C31.1772 27.882 30.9934 28.8281 20.5 28.8281Z" fill="#F8EFE8"/>
</g>
<defs>
<clipPath id="clip0_27_295">
<rect width="41" height="41" fill="white"/>
</clipPath>
</defs>
</svg>
