<svg width="68" height="69" viewBox="0 0 68 69" fill="none" xmlns="http://www.w3.org/2000/svg">
<g clip-path="url(#clip0_48_354)">
<path d="M34 69C52.7777 69 68 53.5538 68 34.5C68 15.4462 52.7777 0 34 0C15.2223 0 0 15.4462 0 34.5C0 53.5538 15.2223 69 34 69Z" fill="#DBFFE9"/>
<path d="M30.1184 42.5357C30.1184 38.4475 26.8657 34.8549 23.1483 34.731C24.31 30.1473 26.5171 25.4396 29.6537 19.8647H23.0321C18.3852 27.5457 15.1326 35.2266 15.1326 41.173C15.1326 46.624 18.5014 50.2166 22.7998 50.2166C26.7495 50.2166 30.1184 46.7479 30.1184 42.5357ZM50.7968 42.5357C50.7968 38.4475 47.5439 34.8549 43.8266 34.731C44.9882 30.1473 47.1955 25.4396 50.3321 19.8647H43.7104C39.0636 27.5457 35.8108 35.2266 35.8108 41.173C35.8108 46.624 39.1798 50.2166 43.478 50.2166C47.4279 50.2166 50.7968 46.7479 50.7968 42.5357Z" fill="#398A6A"/>
</g>
<defs>
<clipPath id="clip0_48_354">
<rect width="68" height="69" fill="white"/>
</clipPath>
</defs>
</svg>
